<svg width="24" height="24" viewBox="0 0 24 24" fill="none" xmlns="http://www.w3.org/2000/svg">
<path d="M5.59998 8.37988H4C3.45 8.37988 3 8.82988 3 9.37988V17.9999C3 18.5499 3.45 18.9999 4 18.9999H5.59998C6.14998 18.9999 6.59998 18.5499 6.59998 17.9999V9.37988C6.59998 8.82988 6.14998 8.37988 5.59998 8.37988Z" fill="#9CA3AF"/>
<path d="M12.7999 5.18994H11.2C10.65 5.18994 10.2 5.63994 10.2 6.18994V17.9999C10.2 18.5499 10.65 18.9999 11.2 18.9999H12.7999C13.3499 18.9999 13.7999 18.5499 13.7999 17.9999V6.18994C13.7999 5.63994 13.3499 5.18994 12.7999 5.18994Z" fill="#9CA3AF"/>
<path d="M20 2H18.4C17.85 2 17.4 2.45 17.4 3V18C17.4 18.55 17.85 19 18.4 19H20C20.55 19 21 18.55 21 18V3C21 2.45 20.55 2 20 2Z" fill="#9CA3AF"/>
</svg>
